Results
version=1
nRows=28
nColumns=23
inDegrees=yes
endheader
time	pelvis_tilt	pelvis_list	pelvis_rotation	pelvis_tx	pelvis_ty	pelvis_tz	hip_flexion_r	hip_adduction_r	hip_rotation_r	knee_angle_beta	knee_angle_r	ankle_angle_r	subtalar_angle_r	mtp_angle_r	hip_flexion_l	hip_adduction_l	hip_rotation_l	knee_angle_l_beta	knee_angle_l	ankle_angle_l	subtalar_angle_l	mtp_angle_l
      1.45000000	     -0.45342299	     10.66235097	     84.94781651	     -0.02744635	      1.06434520	     -0.26935673	      8.30207284	     -9.20486618	    -10.03562704	     33.69689112	    -33.69689112	     -6.01980620	      0.00000000	      0.00000000	      5.07364716	    -11.03425522	     -9.72709585	     34.50408074	    -34.50408074	     -3.68173094	      0.00000000	      0.00000000
      1.45500000	     -0.22392129	     11.00213470	     84.55297388	     -0.02677154	      1.07976493	     -0.27392629	      5.57673471	     -8.66564907	    -10.12939990	     29.13383138	    -29.13383138	     -9.90423065	      0.00000000	      0.00000000	      2.48041608	    -10.72104180	     -9.37085466	     30.36291014	    -30.36291014	     -6.53213440	      0.00000000	      0.00000000
      1.46000000	      0.06850333	     11.21298815	     84.13699875	     -0.02602628	      1.09475314	     -0.27852188	      2.93826987	     -8.01317947	     -9.96357796	     24.41976080	    -24.41976080	    -13.78022665	      0.00000000	      0.00000000	     -0.00114370	    -10.48950670	     -8.81547608	     26.19095072	    -26.19095072	     -8.95475904	      0.00000000	      0.00000000
      1.46500000	      0.44932464	     11.69742860	     83.76234273	     -0.02520636	      1.10984482	     -0.28334244	     -0.17208364	     -7.27669733	     -9.65104828	     19.44587535	    -19.44587535	    -17.23723079	      0.00000000	      0.00000000	     -2.85432260	    -10.35459213	     -8.14020222	     21.92230261	    -21.92230261	    -11.02986967	      0.00000000	      0.00000000
      1.47000000	      0.84617808	     12.06097785	     83.42141910	     -0.02436389	      1.12421743	     -0.28813819	     -3.13569489	     -6.54002535	     -9.14646601	     14.52793259	    -14.52793259	    -20.43752890	      0.00000000	      0.00000000	     -5.47103593	    -10.32019519	     -7.42114345	     17.89288259	    -17.89288259	    -12.65760482	      0.00000000	      0.00000000
      1.47500000	      1.22528860	     12.36621666	     83.08796254	     -0.02346221	      1.13787485	     -0.29286312	     -5.90746038	     -5.88274052	     -8.55196244	      9.93129773	     -9.93129773	    -23.13304837	      0.00000000	      0.00000000	     -7.87907354	    -10.35423098	     -6.84387074	     14.19987449	    -14.19987449	    -13.94337620	      0.00000000	      0.00000000
      1.48000000	      1.53014667	     12.55010059	     82.75897862	     -0.02254926	      1.15080987	     -0.29736825	     -8.26654315	     -5.37814386	     -8.01192102	      5.95883598	     -5.95883598	    -25.25123034	      0.00000000	      0.00000000	     -9.91173777	    -10.38388257	     -6.48112681	     11.02753436	    -11.02753436	    -14.85670551	      0.00000000	      0.00000000
      1.48500000	      1.76605973	     12.57338164	     82.41736447	     -0.02162440	      1.16309390	     -0.30151796	    -10.04772381	     -5.01043049	     -7.58701148	      2.83630870	     -2.83630870	    -26.78815719	      0.00000000	      0.00000000	    -11.47767025	    -10.39817286	     -6.38213449	      8.46074815	     -8.46074815	    -15.49486574	      0.00000000	      0.00000000
      1.49000000	      1.92843853	     12.47345588	     82.09718402	     -0.02076057	      1.17498146	     -0.30521393	    -11.25780549	     -4.75343086	     -7.35142677	      0.63060063	     -0.63060063	    -27.75574197	      0.00000000	      0.00000000	    -12.59765796	    -10.37168369	     -6.43772757	      6.49827878	     -6.49827878	    -15.95661589	      0.00000000	      0.00000000
      1.49500000	      2.03607352	     12.21463640	     81.77739392	     -0.01995833	      1.18654436	     -0.30839809	    -11.84024061	     -4.56956713	     -7.24315007	     -0.64057598	      0.64057598	    -28.34507807	      0.00000000	      0.00000000	    -13.22605501	    -10.31562788	     -6.65127781	      5.16091439	     -5.16091439	    -16.23119486	      0.00000000	      0.00000000
      1.50000000	      2.06506900	     11.76073979	     81.51107619	     -0.01932521	      1.19780998	     -0.31095208	    -11.76299889	     -4.45795906	     -7.26145945	     -0.99933124	      0.99933124	    -28.62702392	      0.00000000	      0.00000000	    -13.29105727	    -10.22251444	     -6.87436150	      4.45982195	     -4.45982195	    -16.35507869	      0.00000000	      0.00000000
      1.50500000	      2.08777157	     11.48291541	     81.32846578	     -0.01886728	      1.20921515	     -0.31308289	    -11.62204305	     -4.36876778	     -7.51110311	     -0.77524189	      0.77524189	    -28.74037757	      0.00000000	      0.00000000	    -13.29942459	    -10.11642729	     -7.13173628	      4.22515098	     -4.22515098	    -16.25862107	      0.00000000	      0.00000000
      1.51000000	      2.03040358	     10.77812719	     80.93683037	     -0.01833723	      1.22003181	     -0.31426616	    -10.42595628	     -4.39105012	     -7.44727434	      0.50395765	     -0.50395765	    -28.57513320	      0.00000000	      0.00000000	    -12.55596647	     -9.95735399	     -7.67660441	      4.58822912	     -4.58822912	    -16.18515451	      0.00000000	      0.00000000
      1.51500000	      1.93534625	     10.14073788	     80.68606000	     -0.01810353	      1.23076199	     -0.31487216	     -9.09999124	     -4.44525614	     -7.69061165	      2.22092291	     -2.22092291	    -28.38030525	      0.00000000	      0.00000000	    -11.60956918	     -9.80314786	     -8.11015098	      5.40165643	     -5.40165643	    -15.92841345	      0.00000000	      0.00000000
      1.52000000	      1.81788022	      9.52775419	     80.44429562	     -0.01800047	      1.24129796	     -0.31495649	     -7.58307209	     -4.55289539	     -8.01503504	      4.35909455	     -4.35909455	    -28.14873079	      0.00000000	      0.00000000	    -10.50378570	     -9.64985653	     -8.66044826	      6.55775548	     -6.55775548	    -15.57403817	      0.00000000	      0.00000000
      1.52500000	      1.67601336	      8.95798503	     80.19146451	     -0.01801008	      1.25157204	     -0.31448429	     -5.93189156	     -4.71998458	     -8.38273196	      6.81949126	     -6.81949126	    -27.87022613	      0.00000000	      0.00000000	     -9.27474029	     -9.49968965	     -9.28186370	      8.01981637	     -8.01981637	    -15.15958047	      0.00000000	      0.00000000
      1.53000000	      1.53386284	      8.47882686	     79.92435439	     -0.01809322	      1.26162643	     -0.31357468	     -4.27524702	     -4.92749905	     -8.75532538	      9.44195928	     -9.44195928	    -27.58850946	      0.00000000	      0.00000000	     -8.03950596	     -9.37276297	     -9.95564585	      9.67677863	     -9.67677863	    -14.69325065	      0.00000000	      0.00000000
      1.53500000	      1.41618394	      8.12820278	     79.67672090	     -0.01826937	      1.27147455	     -0.31234396	     -2.72636724	     -5.14365549	     -9.12759987	     12.09936918	    -12.09936918	    -27.31228438	      0.00000000	      0.00000000	     -6.87059034	     -9.29456248	    -10.60668969	     11.45771379	    -11.45771379	    -14.17709676	      0.00000000	      0.00000000
      1.54000000	      1.33639864	      7.94020767	     79.43762962	     -0.01848376	      1.28118156	     -0.31091257	     -1.37626645	     -5.34643861	     -9.41517249	     14.67749978	    -14.67749978	    -27.05420059	      0.00000000	      0.00000000	     -5.86226732	     -9.26192917	    -11.20270251	     13.26198006	    -13.26198006	    -13.62665297	      0.00000000	      0.00000000
      1.54500000	      1.31600018	      7.91851239	     79.20888737	     -0.01870211	      1.29078860	     -0.30937451	     -0.26627701	     -5.49747455	     -9.57584887	     17.10423747	    -17.10423747	    -26.79682808	      0.00000000	      0.00000000	     -5.05542553	     -9.28618378	    -11.70656579	     15.01978459	    -15.01978459	    -13.04345010	      0.00000000	      0.00000000
      1.55000000	      1.37043122	      8.09768370	     79.01933985	     -0.01895207	      1.30038691	     -0.30783573	      0.51758794	     -5.56803905	     -9.58440575	     19.30150777	    -19.30150777	    -26.46918953	      0.00000000	      0.00000000	     -4.51126212	     -9.36163255	    -12.05802423	     16.67343937	    -16.67343937	    -12.41360164	      0.00000000	      0.00000000
      1.55500000	      1.47861802	      8.37764241	     78.84500100	     -0.01914477	      1.30987362	     -0.30635161	      1.10470223	     -5.55698919	     -9.44303006	     21.27735652	    -21.27735652	    -26.20194408	      0.00000000	      0.00000000	     -4.12593259	     -9.48045408	    -12.29570746	     18.21865004	    -18.21865004	    -11.75616022	      0.00000000	      0.00000000
      1.56000000	      1.70397997	      9.00263638	     78.70357992	     -0.01935145	      1.31967234	     -0.30510544	      1.12865967	     -5.43322837	     -9.15717987	     22.89680403	    -22.89680403	    -25.84233957	      0.00000000	      0.00000000	     -4.24152699	     -9.63477660	    -12.42041003	     19.52593714	    -19.52593714	    -11.01555720	      0.00000000	      0.00000000
      1.56500000	      1.95383586	      9.66922479	     78.58097240	     -0.01950284	      1.32929646	     -0.30394681	      1.02783381	     -5.24663938	     -8.74584609	     24.30583546	    -24.30583546	    -25.49856687	      0.00000000	      0.00000000	     -4.43977279	     -9.80289359	    -12.46130570	     20.72363524	    -20.72363524	    -10.33673059	      0.00000000	      0.00000000
      1.57000000	      2.18981624	     10.10731860	     78.47142145	     -0.01958664	      1.33838853	     -0.30282694	      1.13027762	     -4.93030618	     -7.98048324	     25.55444845	    -25.55444845	    -24.84192096	      0.00000000	      0.00000000	     -4.39678277	     -9.99495272	    -12.34823724	     21.87403912	    -21.87403912	     -9.53335123	      0.00000000	      0.00000000
      1.57500000	      2.47788135	     10.83123981	     78.39639180	     -0.01971262	      1.34771702	     -0.30195297	      0.78158147	     -4.61251859	     -7.30818516	     26.50549722	    -26.50549722	    -24.38815752	      0.00000000	      0.00000000	     -4.77448759	    -10.15999919	    -12.19433524	     22.78005956	    -22.78005956	     -8.76283685	      0.00000000	      0.00000000
      1.58000000	      2.77358174	     11.51490254	     78.32852029	     -0.01981926	      1.35681408	     -0.30122309	      0.37344220	     -4.22344472	     -6.45787129	     27.20811330	    -27.20811330	    -23.78190428	      0.00000000	      0.00000000	     -5.15389105	    -10.33286981	    -12.00844517	     23.57670570	    -23.57670570	     -7.96388896	      0.00000000	      0.00000000
      1.58500000	      3.04735058	     12.16843677	     78.26438702	     -0.01993086	      1.36569711	     -0.30058478	     -0.07612814	     -3.83255453	     -5.54824401	     27.69495377	    -27.69495377	    -23.19861393	      0.00000000	      0.00000000	     -5.54759129	    -10.47295934	    -11.78749572	     24.24018057	    -24.24018057	     -7.20003598	      0.00000000	      0.00000000
